<svg xmlns="http://www.w3.org/2000/svg" width="1600" height="1000" viewBox="0 0 1600 1000" role="img" aria-label="Graphic Tee">
  <defs>
    <linearGradient id="bg" x1="0" x2="1" y1="0" y2="1"><stop offset="0" stop-color="#f5f2eb"/><stop offset=".58" stop-color="#ffffff"/><stop offset="1" stop-color="#008a58"/></linearGradient>
    <pattern id="grain" width="48" height="48" patternUnits="userSpaceOnUse"><path d="M0 48L48 0M-12 12L12-12M36 60L60 36" stroke="#566359" stroke-opacity=".13"/></pattern>
  </defs>
  <rect width="1600" height="1000" fill="url(#bg)"/>
  <rect width="1600" height="1000" fill="url(#grain)"/>
  <g fill="none" stroke="#101510" stroke-opacity=".18" stroke-width="2"><path d="M120 210H1480M120 430H1480M120 650H1480M120 870H1480"/><path d="M280 80V920M560 80V920M840 80V920M1120 80V920M1400 80V920"/></g>
  <g opacity=".62"><rect x="940" y="190" width="230" height="490" fill="#ffffff"/><rect x="1205" y="190" width="270" height="150" fill="#008a58"/><rect x="1205" y="380" width="270" height="300" fill="#101510"/></g>
  <rect x="118" y="586" width="790" height="204" rx="28" fill="#f5f2eb" opacity=".72"/>
  <text x="160" y="676" font-family="Arial, Helvetica, sans-serif" font-size="72" font-weight="900" fill="#101510">Graphic Tee</text>
  <text x="164" y="736" font-family="Arial, Helvetica, sans-serif" font-size="30" font-weight="700" fill="#0c1f16">Primary route is drop inquiry; secondary route is store visit and shipping order.</text>
  <text x="128" y="146" font-family="Arial, Helvetica, sans-serif" font-size="26" font-weight="800" fill="#101510" opacity=".74">CONVERSION</text>
</svg>